<svg width="25" height="25" viewBox="0 0 25 25" version="1.1" xmlns="http://www.w3.org/2000/svg" xmlns:xlink="http://www.w3.org/1999/xlink" xmlns:figma="http://www.figma.com/figma/ns">
<title>25231</title>
<desc>Created using Figma</desc>
<g id="Canvas" transform="translate(59 14)" figma:type="canvas">
<g id="25231" style="mix-blend-mode:normal;" figma:type="frame">
<g id="Group" style="mix-blend-mode:normal;" figma:type="frame">
<g id="Vector" style="mix-blend-mode:normal;" figma:type="vector">
<use xlink:href="#path0_fill" transform="translate(-58.5 -13.1977)" style="mix-blend-mode:normal;"/>
</g>
</g>
<mask id="mask0_alpha" mask-type="alpha">
<path d="M -58.5 -13.5L -53.0274 -13.5L -53.0274 -7.86619L -58.5 -7.86619L -58.5 -13.5Z" fill="#FFFFFF"/>
</mask>
<g id="Group" style="mix-blend-mode:normal;" mask="url(#mask0_alpha)" figma:type="frame">
</g>
<mask id="mask1_alpha" mask-type="alpha">
<path d="M -58.5 -13.5L -53.0274 -13.5L -53.0274 -7.86619L -58.5 -7.86619L -58.5 -13.5Z" fill="#FFFFFF"/>
</mask>
<g id="Group" style="mix-blend-mode:normal;" mask="url(#mask1_alpha)" figma:type="frame">
</g>
<mask id="mask2_alpha" mask-type="alpha">
<path d="M -58.5 -13.5L -53.0274 -13.5L -53.0274 -7.86619L -58.5 -7.86619L -58.5 -13.5Z" fill="#FFFFFF"/>
</mask>
<g id="Group" style="mix-blend-mode:normal;" mask="url(#mask2_alpha)" figma:type="frame">
</g>
<mask id="mask3_alpha" mask-type="alpha">
<path d="M -58.5 -13.5L -53.0274 -13.5L -53.0274 -7.86619L -58.5 -7.86619L -58.5 -13.5Z" fill="#FFFFFF"/>
</mask>
<g id="Group" style="mix-blend-mode:normal;" mask="url(#mask3_alpha)" figma:type="frame">
</g>
<mask id="mask4_alpha" mask-type="alpha">
<path d="M -58.5 -13.5L -53.0274 -13.5L -53.0274 -7.86619L -58.5 -7.86619L -58.5 -13.5Z" fill="#FFFFFF"/>
</mask>
<g id="Group" style="mix-blend-mode:normal;" mask="url(#mask4_alpha)" figma:type="frame">
</g>
<mask id="mask5_alpha" mask-type="alpha">
<path d="M -58.5 -13.5L -53.0274 -13.5L -53.0274 -7.86619L -58.5 -7.86619L -58.5 -13.5Z" fill="#FFFFFF"/>
</mask>
<g id="Group" style="mix-blend-mode:normal;" mask="url(#mask5_alpha)" figma:type="frame">
</g>
<mask id="mask6_alpha" mask-type="alpha">
<path d="M -58.5 -13.5L -53.0274 -13.5L -53.0274 -7.86619L -58.5 -7.86619L -58.5 -13.5Z" fill="#FFFFFF"/>
</mask>
<g id="Group" style="mix-blend-mode:normal;" mask="url(#mask6_alpha)" figma:type="frame">
</g>
<mask id="mask7_alpha" mask-type="alpha">
<path d="M -58.5 -13.5L -53.0274 -13.5L -53.0274 -7.86619L -58.5 -7.86619L -58.5 -13.5Z" fill="#FFFFFF"/>
</mask>
<g id="Group" style="mix-blend-mode:normal;" mask="url(#mask7_alpha)" figma:type="frame">
</g>
<mask id="mask8_alpha" mask-type="alpha">
<path d="M -58.5 -13.5L -53.0274 -13.5L -53.0274 -7.86619L -58.5 -7.86619L -58.5 -13.5Z" fill="#FFFFFF"/>
</mask>
<g id="Group" style="mix-blend-mode:normal;" mask="url(#mask8_alpha)" figma:type="frame">
</g>
<mask id="mask9_alpha" mask-type="alpha">
<path d="M -58.5 -13.5L -53.0274 -13.5L -53.0274 -7.86619L -58.5 -7.86619L -58.5 -13.5Z" fill="#FFFFFF"/>
</mask>
<g id="Group" style="mix-blend-mode:normal;" mask="url(#mask9_alpha)" figma:type="frame">
</g>
<mask id="mask10_alpha" mask-type="alpha">
<path d="M -58.5 -13.5L -53.0274 -13.5L -53.0274 -7.86619L -58.5 -7.86619L -58.5 -13.5Z" fill="#FFFFFF"/>
</mask>
<g id="Group" style="mix-blend-mode:normal;" mask="url(#mask10_alpha)" figma:type="frame">
</g>
<mask id="mask11_alpha" mask-type="alpha">
<path d="M -58.5 -13.5L -53.0274 -13.5L -53.0274 -7.86619L -58.5 -7.86619L -58.5 -13.5Z" fill="#FFFFFF"/>
</mask>
<g id="Group" style="mix-blend-mode:normal;" mask="url(#mask11_alpha)" figma:type="frame">
</g>
<mask id="mask12_alpha" mask-type="alpha">
<path d="M -58.5 -13.5L -53.0274 -13.5L -53.0274 -7.86619L -58.5 -7.86619L -58.5 -13.5Z" fill="#FFFFFF"/>
</mask>
<g id="Group" style="mix-blend-mode:normal;" mask="url(#mask12_alpha)" figma:type="frame">
</g>
<mask id="mask13_alpha" mask-type="alpha">
<path d="M -58.5 -13.5L -53.0274 -13.5L -53.0274 -7.86619L -58.5 -7.86619L -58.5 -13.5Z" fill="#FFFFFF"/>
</mask>
<g id="Group" style="mix-blend-mode:normal;" mask="url(#mask13_alpha)" figma:type="frame">
</g>
<mask id="mask14_alpha" mask-type="alpha">
<path d="M -58.5 -13.5L -53.0274 -13.5L -53.0274 -7.86619L -58.5 -7.86619L -58.5 -13.5Z" fill="#FFFFFF"/>
</mask>
<g id="Group" style="mix-blend-mode:normal;" mask="url(#mask14_alpha)" figma:type="frame">
</g>
</g>
</g>
<defs>
<path id="path0_fill" d="M 22.3903 6.15257C 21.3172 4.25984 19.8617 2.76136 18.0232 1.65679C 16.1845 0.55217 14.1772 -1.28948e-08 11.9999 -1.28948e-08C 9.82282 -1.28948e-08 7.81486 0.552339 5.97655 1.65679C 4.13797 2.7613 2.68246 4.25984 1.60939 6.15257C 0.536482 8.04525 0 10.1121 0 12.353C 0 15.0448 0.762885 17.4654 2.28904 19.6153C 3.81503 21.7654 5.78638 23.2532 8.20293 24.0788C 8.48422 24.1325 8.69245 24.0947 8.82785 23.9663C 8.96329 23.8378 9.03093 23.6768 9.03093 23.484C 9.03093 23.4518 9.02825 23.1624 9.02305 22.6154C 9.01769 22.0684 9.01517 21.5912 9.01517 21.1841L 8.65579 21.2481C 8.42665 21.2913 8.13758 21.3096 7.78859 21.3044C 7.43977 21.2994 7.07764 21.2618 6.70271 21.1918C 6.32762 21.1225 5.97874 20.9616 5.6558 20.7096C 5.33302 20.4576 5.10388 20.1277 4.96844 19.7205L 4.81219 19.3504C 4.70805 19.104 4.54409 18.8302 4.32009 18.5302C 4.0961 18.2298 3.86959 18.0262 3.64045 17.919L 3.53105 17.8384C 3.45816 17.7848 3.39051 17.7202 3.32796 17.6452C 3.26546 17.5702 3.21867 17.4952 3.18742 17.42C 3.15612 17.3448 3.18206 17.2831 3.26552 17.2347C 3.34898 17.1863 3.4998 17.1628 3.71865 17.1628L 4.03103 17.2109C 4.23937 17.2539 4.49708 17.3823 4.80448 17.5969C 5.11171 17.8113 5.36427 18.0901 5.56222 18.433C 5.80192 18.8728 6.09071 19.2079 6.42941 19.4385C 6.76784 19.6691 7.10906 19.7842 7.45274 19.7842C 7.79642 19.7842 8.09325 19.7574 8.34335 19.704C 8.59318 19.6504 8.82757 19.5698 9.04642 19.4626C 9.14017 18.7439 9.39541 18.1917 9.81193 17.8057C 9.21826 17.7415 8.68452 17.6448 8.21042 17.5161C 7.7366 17.3874 7.24697 17.1783 6.74184 16.8885C 6.23645 16.5991 5.81719 16.2397 5.48396 15.811C 5.15068 15.3821 4.87715 14.8189 4.66378 14.122C 4.45029 13.4249 4.34352 12.6208 4.34352 11.7093C 4.34352 10.4116 4.75506 9.30723 5.57798 8.39567C 5.19249 7.42001 5.22888 6.32626 5.68727 5.11454C 5.98936 5.01792 6.43735 5.09043 7.03102 5.33161C 7.6248 5.57291 8.05954 5.77961 8.33569 5.95099C 8.61184 6.12232 8.8331 6.2675 8.99979 6.38525C 9.96872 6.10654 10.9686 5.96716 11.9998 5.96716C 13.0309 5.96716 14.0311 6.10654 15 6.38525L 15.5938 5.99939C 15.9998 5.74192 16.4792 5.50598 17.031 5.2915C 17.5831 5.07713 18.0052 5.01809 18.297 5.11471C 18.7656 6.32649 18.8074 7.42018 18.4217 8.39584C 19.2446 9.30739 19.6563 10.412 19.6563 11.7095C 19.6563 12.6209 19.5492 13.4276 19.336 14.1301C 19.1226 14.8327 18.8467 15.3953 18.5083 15.8191C 18.1695 16.2428 17.7475 16.5993 17.2424 16.8887C 16.7372 17.1783 16.2474 17.3873 15.7735 17.5161C 15.2995 17.6449 14.7658 17.7417 14.1721 17.806C 14.7135 18.2884 14.9843 19.0498 14.9843 20.0899L 14.9843 23.4835C 14.9843 23.6763 15.0495 23.8373 15.1798 23.9659C 15.31 24.0943 15.5156 24.1321 15.7969 24.0783C 18.2138 23.2528 20.1851 21.7649 21.7111 19.6148C 23.2368 17.4649 24 15.0444 24 12.3525C 23.9995 10.1119 23.4627 8.04525 22.3903 6.15257Z"/>
</defs>
</svg>
