<?xml version="1.0" standalone="no"?>
<!DOCTYPE svg PUBLIC "-//W3C//DTD SVG 20010904//EN"
 "http://www.w3.org/TR/2001/REC-SVG-20010904/DTD/svg10.dtd">
<svg version="1.0" xmlns="http://www.w3.org/2000/svg"
 width="992.000000pt" height="992.000000pt" viewBox="0 0 992.000000 992.000000"
 preserveAspectRatio="xMidYMid meet">
<metadata>
Created by potrace 1.11, written by Peter Selinger 2001-2013
</metadata>
<g transform="translate(0.000000,992.000000) scale(0.100000,-0.100000)"
fill="#000000" stroke="none">
<path d="M4957 9533 c-4 -3 -2 -14 3 -24 7 -12 7 -20 0 -24 -6 -4 -7 -12 -1
-23 5 -9 5 -26 0 -39 -5 -14 -5 -23 1 -23 6 0 6 -9 0 -25 -6 -17 -6 -25 1 -25
7 0 7 -6 0 -17 -5 -10 -6 -24 -1 -33 5 -9 5 -22 0 -30 -5 -8 -5 -21 1 -31 6
-11 5 -20 -1 -24 -6 -4 -6 -15 0 -30 5 -14 6 -25 2 -25 -4 0 -7 -34 -7 -75 0
-41 3 -75 6 -75 4 0 3 -18 -1 -39 -4 -21 -3 -46 2 -54 5 -9 4 -18 -1 -22 -7
-4 -7 -15 -1 -30 5 -14 6 -25 2 -25 -4 0 -7 -34 -7 -75 0 -41 3 -75 6 -75 4 0
3 -18 -1 -39 -4 -21 -3 -46 2 -54 5 -9 4 -18 -1 -22 -7 -4 -7 -15 -1 -30 5
-14 6 -25 2 -25 -4 0 -7 -34 -7 -75 0 -41 3 -75 6 -75 4 0 3 -18 -1 -39 -4
-21 -3 -46 2 -54 5 -9 4 -18 -1 -22 -7 -4 -7 -15 -1 -30 5 -14 6 -25 2 -25 -4
0 -7 -34 -7 -75 0 -41 3 -75 6 -75 4 0 3 -18 -1 -39 -4 -21 -3 -46 2 -54 5 -9
4 -18 -1 -22 -7 -4 -7 -15 -1 -30 5 -14 6 -25 2 -25 -4 0 -7 -34 -7 -75 0 -41
3 -75 6 -75 4 0 3 -18 -1 -39 -4 -21 -3 -46 2 -54 5 -9 4 -18 -1 -22 -7 -4 -7
-15 -1 -30 5 -14 6 -25 2 -25 -4 0 -7 -34 -7 -75 0 -41 3 -75 6 -75 4 0 3 -18
-1 -39 -4 -21 -3 -46 2 -54 5 -9 4 -18 -1 -22 -7 -4 -7 -15 -1 -30 5 -14 6
-25 2 -25 -4 0 -7 -34 -7 -75 0 -41 3 -75 6 -75 4 0 3 -18 -1 -39 -4 -21 -3
-46 2 -54 5 -9 4 -18 -1 -22 -7 -4 -7 -15 -1 -30 5 -14 6 -25 2 -25 -4 0 -7
-34 -7 -75 0 -41 3 -75 6 -75 4 0 3 -18 -1 -39 -4 -21 -3 -46 2 -54 5 -9 4
-18 -1 -22 -7 -4 -7 -15 -1 -30 5 -14 6 -25 2 -25 -4 0 -7 -34 -7 -75 0 -41 3
-75 6 -75 4 0 3 -18 -1 -39 -4 -21 -3 -46 2 -54 5 -9 4 -18 -1 -22 -7 -4 -7
-15 -1 -30 5 -14 6 -25 2 -25 -4 0 -7 -34 -7 -75 0 -41 3 -75 6 -75 4 0 3 -18
-1 -39 -4 -21 -3 -46 2 -54 5 -9 4 -18 -1 -22 -7 -4 -7 -15 -1 -30 5 -14 6
-25 2 -25 -4 0 -7 -34 -7 -75 0 -41 3 -75 6 -75 4 0 3 -18 -1 -39 -4 -21 -3
-46 2 -54 5 -9 4 -18 -1 -22 -7 -4 -7 -15 -1 -30 5 -14 6 -25 2 -25 -4 0 -7
-34 -7 -75 0 -41 3 -75 6 -75 4 0 3 -18 -1 -39 -4 -21 -3 -46 2 -54 5 -9 4
-18 -1 -22 -7 -4 -7 -15 -1 -30 5 -14 6 -25 2 -25 -4 0 -7 -34 -7 -75 0 -41 3
-75 6 -75 4 0 3 -18 -1 -39 -4 -21 -3 -46 2 -54 5 -9 4 -18 -1 -22 -7 -4 -7
-15 -1 -30 5 -14 6 -25 2 -25 -4 0 -7 -34 -7 -75 0 -41 2 -75 5 -75 7 0 4 -66
-5 -79 -3 -6 -1 -11 5 -11 8 0 8 -6 0 -20 -8 -14 -8 -20 0 -20 8 0 8 -6 0 -20
-8 -14 -8 -20 0 -20 7 0 8 -6 2 -17 -9 -20 -8 -54 2 -71 3 -6 2 -13 -3 -17 -7
-4 -7 -15 -1 -30 6 -16 6 -25 -1 -25 -6 0 -6 -6 0 -18 6 -11 6 -24 0 -35 -7
-11 -6 -17 1 -17 7 0 8 -6 1 -17 -6 -11 -6 -24 0 -35 6 -10 5 -19 -1 -23 -7
-4 -6 -14 2 -28 6 -12 11 -22 11 -22 0 0 -5 -10 -12 -22 -8 -16 -8 -23 -1 -23
8 0 8 -6 0 -20 -8 -14 -8 -20 0 -20 8 0 8 -6 0 -20 -8 -14 -8 -20 0 -20 7 0 8
-6 2 -17 -9 -20 -8 -55 2 -72 4 -6 3 -11 -3 -11 -6 0 -6 -11 -1 -30 5 -19 5
-30 -1 -30 -6 0 -6 -7 1 -19 7 -14 7 -22 0 -26 -7 -5 -8 -11 -1 -19 6 -7 6
-17 1 -26 -5 -8 -5 -21 1 -31 6 -11 5 -20 -1 -24 -7 -4 -6 -14 2 -28 6 -12 11
-22 11 -22 0 0 -5 -10 -12 -23 -8 -15 -8 -22 -1 -22 8 0 8 -6 0 -20 -8 -14 -8
-20 0 -20 8 0 8 -6 0 -20 -8 -14 -8 -20 0 -20 7 0 8 -6 2 -17 -9 -20 -8 -54 2
-71 3 -6 2 -13 -3 -17 -7 -4 -7 -15 -1 -30 6 -16 6 -25 -1 -25 -6 0 -6 -6 0
-18 6 -11 6 -24 0 -35 -7 -11 -6 -17 1 -17 7 0 8 -6 1 -18 -6 -11 -6 -24 0
-34 6 -11 6 -19 -1 -23 -6 -4 -7 -13 -1 -23 11 -21 11 -33 0 -54 -7 -12 -6
-18 1 -18 8 0 8 -6 0 -20 -8 -14 -8 -20 0 -20 8 0 8 -6 0 -20 -8 -14 -8 -20 0
-20 7 0 8 -6 2 -17 -9 -20 -8 -55 2 -72 4 -6 3 -11 -3 -11 -6 0 -6 -11 -1 -30
5 -19 5 -30 -1 -30 -6 0 -6 -7 1 -19 7 -14 7 -22 0 -26 -7 -5 -8 -11 -1 -19 6
-7 6 -17 1 -26 -5 -8 -5 -21 1 -31 6 -11 5 -20 -1 -24 -6 -4 -7 -13 -1 -23 11
-21 11 -33 0 -55 -7 -11 -6 -17 1 -17 8 0 8 -6 0 -20 -8 -14 -8 -20 0 -20 8 0
8 -6 0 -20 -8 -14 -8 -20 0 -20 7 0 8 -6 2 -17 -9 -20 -8 -54 2 -71 3 -6 2
-13 -3 -17 -7 -4 -7 -15 -1 -30 6 -16 6 -25 -1 -25 -6 0 -6 -6 0 -18 6 -11 6
-24 0 -35 -7 -11 -6 -17 1 -17 7 0 8 -6 1 -18 -6 -11 -6 -24 0 -34 6 -11 6
-19 -1 -23 -7 -4 -6 -14 2 -28 6 -12 10 -24 9 -27 -2 -3 -7 -13 -12 -22 -7
-12 -6 -18 1 -18 8 0 8 -6 0 -20 -8 -14 -8 -20 0 -20 8 0 8 -6 0 -20 -8 -14
-8 -20 0 -20 7 0 8 -6 2 -17 -9 -20 -8 -55 2 -72 4 -6 3 -11 -3 -11 -6 0 -6
-11 -1 -30 5 -19 5 -30 -1 -30 -6 0 -6 -7 1 -19 7 -14 7 -22 0 -26 -7 -5 -8
-11 -1 -19 6 -7 6 -17 1 -26 -5 -8 -5 -21 1 -31 6 -11 5 -20 -1 -24 -7 -4 -6
-14 2 -28 6 -12 10 -24 9 -27 -2 -3 -7 -13 -12 -23 -7 -11 -6 -17 1 -17 8 0 8
-6 0 -20 -8 -14 -8 -20 0 -20 8 0 8 -6 0 -20 -8 -14 -8 -20 0 -20 7 0 8 -6 2
-17 -9 -20 -8 -54 2 -71 3 -6 2 -13 -3 -17 -7 -4 -7 -15 -1 -30 6 -16 6 -25
-1 -25 -6 0 -6 -6 0 -18 6 -11 6 -24 0 -35 -7 -11 -6 -17 1 -17 7 0 8 -6 1
-18 -6 -11 -6 -24 0 -34 6 -11 6 -19 -1 -23 -7 -4 -6 -14 2 -28 6 -12 11 -22
11 -22 0 0 -5 -10 -12 -22 -8 -16 -8 -23 -1 -23 8 0 8 -6 0 -20 -8 -14 -8 -20
0 -20 8 0 8 -6 0 -20 -8 -14 -8 -20 0 -20 6 0 8 -5 5 -11 -9 -13 -12 -79 -5
-79 3 0 5 -16 5 -35 0 -37 -6 -38 -65 -13 -14 6 -34 14 -45 18 -11 4 -37 15
-58 24 -21 9 -44 16 -52 16 -8 0 -15 5 -15 11 0 5 -4 8 -8 5 -4 -2 -27 4 -51
15 -24 10 -47 19 -52 19 -5 0 -31 9 -57 21 -112 50 -398 159 -416 159 -9 0
-16 4 -16 9 0 5 -22 15 -50 22 -27 7 -50 16 -50 21 0 4 -10 8 -23 8 -13 0 -27
4 -32 9 -6 5 -37 18 -70 30 -59 21 -83 31 -128 52 -13 5 -29 11 -37 13 -19 4
-44 13 -95 36 -35 15 -79 32 -95 35 -3 1 -22 9 -44 18 -21 9 -40 17 -42 17 -1
0 -15 5 -31 12 -15 6 -30 12 -33 13 -3 1 -18 7 -33 13 -16 7 -30 12 -31 12 -2
0 -21 8 -42 17 -22 9 -41 17 -44 18 -15 3 -60 20 -95 35 -61 26 -306 122 -319
125 -6 1 -24 8 -41 15 -16 7 -34 14 -40 16 -13 3 -289 111 -330 129 -16 7 -41
17 -55 20 -14 4 -43 15 -65 25 -50 21 -78 33 -85 34 -8 2 -138 53 -192 75 -13
6 -111 43 -218 85 -107 41 -208 80 -225 87 -16 7 -33 13 -37 14 -5 2 -10 4
-13 5 -3 1 -8 3 -12 5 -5 1 -19 6 -33 12 -14 6 -45 19 -70 28 -25 9 -59 23
-77 31 -17 8 -34 14 -38 14 -4 0 -21 6 -38 14 -35 15 -149 60 -157 62 -7 1
-42 14 -65 25 -11 4 -50 20 -88 33 -37 14 -82 32 -100 39 -17 8 -70 29 -117
47 -47 17 -94 35 -105 40 -29 12 -89 35 -95 36 -3 0 -22 8 -42 17 -21 10 -42
17 -48 17 -6 0 -18 4 -28 9 -40 21 -113 51 -125 51 -7 0 -18 5 -25 12 -7 7
-12 9 -12 5 0 -4 -10 -2 -22 4 -13 6 -20 9 -17 5 3 -3 116 -62 250 -130 262
-132 789 -400 1219 -618 146 -75 366 -186 490 -249 124 -63 228 -118 231 -122
3 -5 9 -8 13 -7 7 2 96 -40 106 -50 9 -9 244 -123 259 -126 8 -2 17 -7 20 -11
3 -5 74 -43 156 -84 83 -42 188 -95 235 -119 47 -24 87 -44 90 -45 3 0 15 -6
27 -13 12 -7 134 -69 270 -138 136 -69 254 -130 260 -136 7 -6 13 -8 13 -4 0
3 19 -5 43 -18 124 -69 217 -115 217 -108 0 4 4 2 8 -3 4 -6 70 -42 147 -80
77 -39 142 -73 143 -77 2 -5 9 -8 16 -8 7 0 49 -20 94 -44 45 -24 82 -41 82
-38 0 4 4 3 8 -3 4 -5 83 -48 175 -94 l168 -85 96 50 c53 27 100 48 105 46 4
-1 8 2 8 7 0 4 26 20 58 34 31 14 95 46 141 71 46 25 93 48 105 52 11 4 23 9
26 13 3 3 156 82 340 175 184 93 372 188 418 212 45 24 82 40 82 36 0 -4 4 -2
8 4 4 6 90 52 192 104 406 203 816 413 828 422 6 6 12 7 12 3 0 -4 6 -3 13 3
20 16 187 102 187 96 0 -3 12 3 28 13 15 11 90 50 167 89 77 38 142 72 145 75
4 5 37 20 50 23 5 2 25 12 88 48 18 10 39 18 46 18 8 0 16 3 18 8 2 4 39 25
83 47 44 21 83 44 87 50 4 5 8 6 8 1 0 -5 9 -1 19 8 11 10 25 15 30 11 6 -3
11 -1 11 4 0 6 5 11 10 11 6 0 28 11 49 24 21 14 41 23 43 20 3 -2 11 2 18 11
7 8 20 15 29 15 9 0 21 4 26 9 17 15 325 170 325 163 0 -4 4 -2 8 4 4 6 75 45
157 86 83 42 245 123 360 182 116 58 215 110 222 116 7 5 15 10 19 10 4 0 35
14 70 32 l63 32 -42 60 c-23 33 -50 70 -59 81 -9 11 -46 61 -82 110 -36 50
-74 101 -83 114 -10 13 -24 30 -31 37 -6 7 -12 15 -12 19 0 3 -9 15 -20 27
-11 12 -20 28 -20 35 0 7 -4 13 -9 13 -4 0 -21 19 -37 42 -16 24 -34 49 -41
58 -7 8 -68 92 -137 185 -68 94 -131 178 -140 188 -9 9 -16 19 -16 22 0 6
-101 143 -152 206 -10 12 -18 25 -18 29 0 4 -10 18 -22 32 -13 14 -55 70 -95
124 -39 54 -79 108 -87 119 -18 23 -108 147 -163 223 -21 29 -43 59 -48 65 -6
7 -66 89 -135 182 -68 94 -128 175 -132 180 -38 47 -108 146 -108 154 0 5 -4
11 -9 13 -5 2 -45 53 -89 113 -44 61 -87 117 -95 126 -8 9 -23 30 -33 48 -10
17 -22 31 -26 31 -4 0 -8 4 -8 10 0 9 -6 18 -52 72 -10 11 -20 29 -23 39 -4
11 -10 19 -15 19 -4 0 -17 15 -28 33 -11 17 -27 41 -36 52 -9 11 -34 45 -56
75 -22 30 -43 60 -48 65 -16 19 -227 308 -255 349 -16 22 -36 47 -45 54 -9 6
-12 12 -6 12 5 0 5 3 -1 8 -15 10 -75 90 -75 98 0 4 -7 14 -15 23 -9 9 -40 50
-70 91 -30 41 -65 88 -77 104 -13 15 -27 37 -32 47 -5 11 -13 19 -18 19 -4 0
-8 5 -8 10 0 6 -8 19 -17 29 -33 37 -43 50 -43 61 0 5 -4 10 -8 10 -4 0 -15
12 -24 28 -10 15 -28 40 -43 56 -14 16 -25 32 -25 35 0 3 -10 18 -23 33 -12
15 -33 44 -47 63 -14 20 -44 60 -67 90 -24 29 -43 56 -43 59 0 3 -7 14 -15 23
-8 10 -71 95 -139 188 -69 94 -129 175 -133 180 -5 6 -19 26 -33 45 -13 19
-27 37 -30 40 -3 3 -34 46 -70 95 -35 50 -67 92 -70 95 -3 3 -17 21 -30 40
-13 19 -27 37 -30 40 -3 3 -19 25 -35 50 -16 25 -33 47 -36 50 -3 3 -43 57
-89 120 -47 63 -87 117 -90 120 -3 3 -14 19 -24 35 -11 17 -25 37 -33 45 -7 8
-43 56 -78 105 -36 50 -74 101 -85 113 -11 13 -20 28 -20 33 0 5 -4 9 -10 9
-5 0 -10 5 -10 11 0 6 -18 33 -40 59 -22 26 -40 52 -40 58 0 6 -3 12 -8 14 -8
3 -65 80 -291 388 -34 47 -67 92 -74 100 -7 8 -30 40 -51 70 -22 30 -43 57
-48 58 -4 2 -8 8 -8 14 0 13 -26 38 -33 31z"/>
</g>
</svg>
